# xmcd CD database file
#
# Track frame offsets:
#	150
#	15688
#	29574
#	40007
#	53290
#	66440
#	81392
#	100214
#	119866
#	130186
#	144445
#	174147
#	189317
#	204370
#	220477
#	235270
#	253026
#	267861
#	283188
#
# Disc length: 3939 seconds
#
# Revision: 0
# Processed by: cddbd v1.5.2PL0 Copyright (c) Steve Scherf et al.
# Submitted via: CDex 1.51
#
DISCID=170f6113
DTITLE=Paolo Conte - Ging-Oh (Best Of)
DYEAR=2011
DGENRE=Jazz
TTITLE0=La Musica E' Pagana
TTITLE1=Epoca
TTITLE2=La Zarzamora
TTITLE3=Cosa Sai Di Me?
TTITLE4=Architetture Lontane
TTITLE5=Sonno elefante
TTITLE6=Dragon
TTITLE7=Un Vecchio Errore
TTITLE8=Mister Jive
TTITLE9=Sotto Le Stelle Del Jazz
TTITLE10=Alle prese con una verde milonga (live)
TTITLE11=Una Faccia In Prestito
TTITLE12=L'Orchestrina
TTITLE13=Novecento
TTITLE14=Gong-Oh
TTITLE15=Gli Impermeabili
TTITLE16=Il Quadrato E Il Cerchio
TTITLE17=Happy Feet ( Musica per I Vostri Piedi Madame )
TTITLE18=Via Con Me
EXTD=YEAR: 2011
EXTT0=
EXTT1=
EXTT2=
EXTT3=
EXTT4=
EXTT5=
EXTT6=
EXTT7=
EXTT8=
EXTT9=
EXTT10=
EXTT11=
EXTT12=
EXTT13=
EXTT14=
EXTT15=
EXTT16=
EXTT17=
EXTT18=
PLAYORDER=
